<svg xmlns="http://www.w3.org/2000/svg" width="16" height="17" fill="none" aria-label="Stars AI" class="ShowSummaryCTA-module_summary__stars__icon__m67e1"><path fill="currentColor" d="M12.349 8.566 9.123 7.38 7.936 4.15a.995.995 0 0 0-1.868 0L4.88 7.375 1.651 8.563a.995.995 0 0 0 0 1.867l3.224 1.195 1.188 3.226a.994.994 0 0 0 1.867 0l1.188-3.225 3.228-1.188a.995.995 0 0 0 0-1.867l.003-.005Zm-3.575 2.121a.992.992 0 0 0-.589.59l-1.187 3.216-1.185-3.219a.992.992 0 0 0-.587-.586L2.009 9.5l3.217-1.188a.992.992 0 0 0 .587-.586L7 4.509l1.188 3.217a.992.992 0 0 0 .589.589l3.216 1.188-3.219 1.184ZM9 3a.5.5 0 0 1 .5-.5h1v-1a.5.5 0 0 1 1 0v1h1a.5.5 0 0 1 0 1h-1v1a.5.5 0 1 1-1 0v-1h-1A.5.5 0 0 1 9 3Zm6.5 3a.5.5 0 0 1-.5.5h-.5V7a.5.5 0 1 1-1 0v-.5H13a.5.5 0 0 1 0-1h.5V5a.5.5 0 0 1 1 0v.5h.5a.5.5 0 0 1 .5.5Z"/></svg>