<svg width="625" height="466" viewBox="0 0 625 466" fill="none" xmlns="http://www.w3.org/2000/svg">
<path d="M529.301 262.553C541.897 319.978 506.719 357.079 458.008 355.356C434.651 354.532 406.763 328.853 383.831 323.136C353.871 315.646 327.955 325.345 299.33 326.769C228.112 330.289 229.048 301.227 181.061 263.752C147.356 237.412 92.9651 240.295 74.9514 194.169C52.8805 137.781 116.147 110.529 164.208 118.893C219.436 128.48 234.728 59.7213 319.079 67.3362C401.97 74.8263 511.562 176.018 529.301 262.553Z" fill="#7F9AF3"/>
<path opacity="0.9" d="M529.301 262.553C541.897 319.978 506.719 357.079 458.008 355.356C434.651 354.532 406.763 328.853 383.831 323.136C353.871 315.646 327.955 325.345 299.33 326.769C228.112 330.289 229.048 301.227 181.061 263.752C147.356 237.412 92.9651 240.295 74.9514 194.169C52.8805 137.781 116.147 110.529 164.208 118.893C219.436 128.48 234.728 59.7213 319.079 67.3362C401.97 74.8263 511.562 176.018 529.301 262.553Z" fill="white"/>
<path d="M312.088 465.086C445.764 465.086 554.131 458.759 554.131 450.954C554.131 443.15 445.764 436.823 312.088 436.823C178.411 436.823 70.0449 443.15 70.0449 450.954C70.0449 458.759 178.411 465.086 312.088 465.086Z" fill="#F5F5F5"/>
<path d="M325.084 387.613H165.831C163.27 387.577 160.818 386.573 158.966 384.805C157.114 383.036 155.999 380.632 155.845 378.076L141.563 101.503C141.484 100.273 141.66 99.0398 142.08 97.8807C142.5 96.7216 143.154 95.6618 144.003 94.7675C144.851 93.8733 145.875 93.1639 147.011 92.684C148.146 92.204 149.369 91.9638 150.601 91.9784H309.854C312.413 92.0116 314.866 93.0121 316.718 94.7789C318.571 96.5457 319.686 98.948 319.84 101.503L334.097 378.076C334.176 379.304 334.001 380.536 333.582 381.694C333.164 382.852 332.512 383.912 331.666 384.806C330.821 385.701 329.8 386.412 328.667 386.895C327.535 387.378 326.315 387.622 325.084 387.613Z" fill="#7F9AF3"/>
<path opacity="0.8" d="M325.084 387.613H165.831C163.27 387.577 160.818 386.573 158.966 384.805C157.114 383.036 155.999 380.632 155.845 378.076L141.563 101.503C141.484 100.273 141.66 99.0398 142.08 97.8807C142.5 96.7216 143.154 95.6618 144.003 94.7675C144.851 93.8733 145.875 93.1639 147.011 92.684C148.146 92.204 149.369 91.9638 150.601 91.9784H309.854C312.413 92.0116 314.866 93.0121 316.718 94.7789C318.571 96.5457 319.686 98.948 319.84 101.503L334.097 378.076C334.176 379.304 334.001 380.536 333.582 381.694C333.164 382.852 332.512 383.912 331.666 384.806C330.821 385.701 329.8 386.412 328.667 386.895C327.535 387.378 326.315 387.622 325.084 387.613Z" fill="white"/>
<path d="M294.137 82.9653H276.522V84.2137H294.137V82.9653Z" fill="#7F9AF3"/>
<path d="M270.418 82.9653H263.964V84.2137H270.418V82.9653Z" fill="#7F9AF3"/>
<path d="M331.937 370.061H179.638C177.186 370.037 174.833 369.085 173.054 367.397C171.276 365.708 170.202 363.409 170.051 360.961L156.419 96.435C156.343 95.2577 156.512 94.0774 156.913 92.9682C157.315 91.8589 157.942 90.8447 158.754 89.9891C159.567 89.1335 160.547 88.4549 161.634 87.996C162.72 87.537 163.89 87.3076 165.07 87.3221H317.369C319.821 87.3491 322.172 88.3042 323.949 89.9951C325.726 91.6859 326.796 93.987 326.944 96.435L340.576 360.961C340.652 362.136 340.484 363.315 340.082 364.423C339.681 365.53 339.055 366.543 338.244 367.398C337.433 368.252 336.454 368.93 335.369 369.388C334.284 369.847 333.115 370.076 331.937 370.061Z" fill="#7F9AF3"/>
<path d="M331.937 363.982H179.638C178.745 363.951 177.894 363.593 177.247 362.977C176.601 362.36 176.203 361.527 176.13 360.636L162.486 96.123C162.455 95.7711 162.499 95.4167 162.615 95.0832C162.731 94.7496 162.917 94.4445 163.16 94.188C163.403 93.9321 163.698 93.7308 164.025 93.5974C164.353 93.464 164.704 93.4015 165.057 93.4141H317.356C318.247 93.4477 319.095 93.8068 319.739 94.4233C320.383 95.0398 320.779 95.871 320.851 96.7596L334.558 361.273C334.588 361.623 334.544 361.976 334.428 362.309C334.312 362.641 334.127 362.945 333.886 363.201C333.644 363.456 333.351 363.658 333.026 363.793C332.701 363.927 332.351 363.992 331.999 363.982H331.937ZM165.057 93.7261C164.747 93.7161 164.438 93.7709 164.15 93.8869C163.862 94.003 163.601 94.1778 163.384 94.4002C163.176 94.6308 163.017 94.9012 162.916 95.1952C162.815 95.4892 162.775 95.8006 162.798 96.1105L176.43 360.624C176.499 361.434 176.862 362.191 177.451 362.752C178.04 363.313 178.813 363.639 179.626 363.67H331.924C332.233 363.682 332.541 363.628 332.827 363.512C333.114 363.396 333.372 363.22 333.585 362.996C333.798 362.768 333.961 362.498 334.062 362.204C334.163 361.909 334.201 361.596 334.171 361.285L320.552 96.7721C320.485 95.9631 320.125 95.2064 319.538 94.6452C318.952 94.0839 318.18 93.757 317.369 93.7261H165.057Z" fill="white"/>
<path opacity="0.3" d="M278.666 189.819C295.988 172.043 294.86 142.85 276.146 124.613C257.432 106.377 228.219 106.003 210.897 123.779C193.575 141.554 194.703 170.748 213.417 188.984C232.13 207.221 261.343 207.595 278.666 189.819Z" fill="white"/>
<path d="M282.128 156.805C282.477 162.94 281.244 169.061 278.545 174.582C275.624 180.503 271.09 185.478 265.464 188.935C259.839 192.391 253.352 194.188 246.75 194.118C239.908 194.057 233.198 192.225 227.274 188.802C221.35 185.378 216.414 180.479 212.944 174.582C209.711 169.189 207.851 163.085 207.526 156.805C207.219 151.989 207.908 147.162 209.552 142.625C211.195 138.088 213.758 133.939 217.079 130.437C220.4 126.936 224.407 124.158 228.851 122.277C233.295 120.396 238.079 119.452 242.905 119.505C252.948 119.609 262.578 123.516 269.856 130.437C277.134 137.358 281.519 146.78 282.128 156.805Z" fill="white"/>
<path d="M278.508 174.582C275.587 180.503 271.052 185.478 265.427 188.935C259.802 192.391 253.314 194.188 246.712 194.119C239.87 194.057 233.161 192.225 227.237 188.802C221.313 185.378 216.376 180.479 212.907 174.582C222.393 168.03 233.66 164.545 245.189 164.595C257.026 164.64 268.598 168.108 278.508 174.582Z" fill="#7F9AF3"/>
<path d="M256.346 155.938C262.587 149.534 262.178 139.014 255.433 132.441C248.688 125.868 238.161 125.731 231.921 132.136C225.68 138.54 226.088 149.06 232.833 155.633C239.578 162.205 250.105 162.342 256.346 155.938Z" fill="#7F9AF3"/>
<path d="M310.103 267.147H190.848C189.809 267.136 188.813 266.732 188.061 266.017C187.308 265.301 186.854 264.326 186.791 263.29L185.892 245.813C185.861 245.316 185.933 244.817 186.104 244.349C186.274 243.881 186.539 243.453 186.883 243.093C187.226 242.732 187.64 242.445 188.099 242.252C188.558 242.058 189.052 241.962 189.55 241.968H308.805C309.842 241.978 310.836 242.38 311.588 243.094C312.341 243.807 312.796 244.778 312.862 245.813L313.761 263.29C313.794 263.788 313.723 264.287 313.553 264.757C313.384 265.226 313.119 265.656 312.775 266.018C312.432 266.38 312.017 266.668 311.557 266.862C311.097 267.056 310.602 267.153 310.103 267.147Z" fill="white"/>
<path opacity="0.3" d="M273.589 232.318H223.78C222.737 232.31 221.736 231.906 220.98 231.187C220.224 230.469 219.77 229.489 219.71 228.448L219.523 224.703C219.49 224.205 219.561 223.705 219.73 223.236C219.9 222.766 220.165 222.337 220.508 221.975C220.852 221.612 221.267 221.325 221.726 221.131C222.186 220.937 222.681 220.84 223.181 220.846H272.977C274.016 220.856 275.012 221.26 275.765 221.976C276.518 222.692 276.971 223.666 277.034 224.703L277.234 228.448C277.265 228.945 277.193 229.444 277.024 229.912C276.855 230.381 276.591 230.81 276.249 231.172C275.908 231.535 275.495 231.824 275.038 232.021C274.58 232.218 274.087 232.319 273.589 232.318Z" fill="black"/>
<path opacity="0.3" d="M292.115 351.174H217.501C215.734 351.152 214.041 350.463 212.76 349.245C211.48 348.028 210.707 346.371 210.597 344.607L210.16 335.994C210.116 335.147 210.245 334.3 210.539 333.505C210.833 332.71 211.286 331.983 211.87 331.369C212.454 330.754 213.157 330.265 213.936 329.932C214.715 329.598 215.554 329.426 216.402 329.427H290.991C292.758 329.449 294.451 330.138 295.731 331.356C297.012 332.573 297.784 334.23 297.894 335.994L298.331 344.607C298.375 345.452 298.247 346.296 297.955 347.09C297.663 347.883 297.212 348.609 296.631 349.223C296.049 349.837 295.349 350.327 294.573 350.662C293.797 350.997 292.96 351.171 292.115 351.174Z" fill="black"/>
<path d="M312.288 309.416H193.021C191.983 309.403 190.988 308.998 190.236 308.283C189.484 307.567 189.029 306.595 188.963 305.559L188.065 288.082C188.034 287.584 188.106 287.085 188.276 286.617C188.446 286.148 188.711 285.719 189.054 285.358C189.397 284.996 189.811 284.708 190.27 284.513C190.729 284.318 191.224 284.22 191.722 284.225H310.977C312.016 284.235 313.012 284.639 313.765 285.355C314.518 286.071 314.971 287.045 315.034 288.082L315.946 305.559C315.975 306.056 315.901 306.554 315.731 307.022C315.56 307.49 315.295 307.918 314.952 308.279C314.609 308.641 314.196 308.928 313.738 309.124C313.28 309.319 312.786 309.419 312.288 309.416Z" fill="white"/>
<path d="M205.978 254.551C206.013 255.103 205.933 255.656 205.744 256.175C205.555 256.695 205.261 257.169 204.88 257.57C204.5 257.971 204.04 258.289 203.531 258.504C203.022 258.719 202.474 258.827 201.921 258.821C200.773 258.807 199.673 258.359 198.841 257.567C198.01 256.775 197.509 255.697 197.44 254.551C197.404 254 197.482 253.448 197.669 252.928C197.857 252.409 198.15 251.934 198.529 251.533C198.909 251.132 199.368 250.814 199.876 250.599C200.385 250.383 200.932 250.276 201.484 250.282C202.634 250.295 203.736 250.743 204.569 251.535C205.403 252.326 205.906 253.404 205.978 254.551Z" fill="#263238"/>
<path d="M219.124 254.551C219.16 255.102 219.082 255.655 218.894 256.174C218.707 256.694 218.414 257.169 218.034 257.57C217.654 257.97 217.196 258.289 216.687 258.504C216.179 258.719 215.631 258.827 215.079 258.821C213.93 258.81 212.828 258.363 211.996 257.57C211.164 256.778 210.664 255.698 210.597 254.551C210.561 254 210.639 253.448 210.827 252.928C211.014 252.409 211.307 251.934 211.687 251.533C212.067 251.132 212.525 250.814 213.034 250.599C213.542 250.383 214.09 250.276 214.642 250.282C215.791 250.293 216.893 250.74 217.725 251.532C218.557 252.325 219.057 253.404 219.124 254.551Z" fill="#263238"/>
<path d="M232.194 254.551C232.23 255.102 232.152 255.655 231.965 256.174C231.777 256.694 231.484 257.169 231.104 257.57C230.725 257.97 230.266 258.289 229.758 258.504C229.249 258.719 228.701 258.827 228.149 258.821C227 258.807 225.898 258.36 225.064 257.568C224.231 256.776 223.728 255.699 223.655 254.551C223.621 254 223.701 253.447 223.89 252.927C224.079 252.408 224.373 251.933 224.753 251.532C225.134 251.132 225.593 250.814 226.102 250.599C226.612 250.383 227.16 250.276 227.712 250.282C228.861 250.296 229.961 250.743 230.792 251.535C231.624 252.328 232.125 253.405 232.194 254.551Z" fill="#263238"/>
<path d="M245.364 254.551C245.398 255.102 245.319 255.654 245.131 256.172C244.942 256.691 244.649 257.165 244.27 257.566C243.891 257.966 243.433 258.284 242.925 258.5C242.418 258.716 241.871 258.825 241.319 258.821C240.17 258.807 239.068 258.36 238.234 257.568C237.401 256.776 236.898 255.699 236.825 254.551C236.791 254.001 236.87 253.449 237.058 252.93C237.247 252.412 237.54 251.937 237.919 251.537C238.298 251.136 238.756 250.818 239.264 250.602C239.771 250.386 240.318 250.277 240.87 250.282C242.019 250.295 243.121 250.743 243.955 251.535C244.788 252.326 245.292 253.404 245.364 254.551Z" fill="#263238"/>
<path d="M208.188 296.795C208.224 297.346 208.146 297.899 207.959 298.418C207.771 298.938 207.478 299.413 207.099 299.814C206.719 300.215 206.26 300.533 205.752 300.748C205.243 300.963 204.696 301.071 204.143 301.065C202.994 301.051 201.892 300.604 201.059 299.812C200.225 299.02 199.722 297.943 199.649 296.795C199.615 296.244 199.695 295.691 199.884 295.171C200.073 294.652 200.367 294.177 200.747 293.776C201.128 293.376 201.588 293.058 202.097 292.843C202.606 292.628 203.154 292.52 203.707 292.526C204.855 292.54 205.955 292.988 206.787 293.78C207.618 294.572 208.119 295.649 208.188 296.795Z" fill="#263238"/>
<path d="M221.308 296.795C221.342 297.346 221.263 297.898 221.075 298.416C220.887 298.935 220.594 299.409 220.214 299.81C219.835 300.21 219.377 300.528 218.869 300.744C218.362 300.96 217.815 301.069 217.263 301.065C216.114 301.051 215.012 300.604 214.179 299.812C213.345 299.02 212.842 297.943 212.769 296.795C212.733 296.244 212.811 295.692 212.999 295.172C213.186 294.653 213.479 294.178 213.859 293.777C214.239 293.376 214.697 293.058 215.206 292.843C215.714 292.628 216.262 292.52 216.814 292.526C217.963 292.539 219.065 292.987 219.899 293.779C220.732 294.571 221.236 295.648 221.308 296.795Z" fill="#263238"/>
<path d="M234.428 296.795C234.463 297.347 234.383 297.9 234.194 298.419C234.005 298.939 233.711 299.414 233.33 299.814C232.949 300.215 232.49 300.533 231.981 300.748C231.472 300.963 230.924 301.071 230.371 301.065C229.222 301.054 228.12 300.607 227.288 299.814C226.456 299.022 225.956 297.943 225.889 296.795C225.853 296.244 225.931 295.692 226.119 295.172C226.306 294.653 226.599 294.178 226.979 293.777C227.359 293.376 227.817 293.058 228.326 292.843C228.834 292.628 229.382 292.52 229.934 292.526C231.084 292.539 232.186 292.987 233.019 293.779C233.852 294.571 234.356 295.648 234.428 296.795Z" fill="#263238"/>
<path d="M247.536 296.795C247.572 297.346 247.494 297.899 247.306 298.418C247.119 298.938 246.826 299.413 246.446 299.814C246.066 300.215 245.608 300.533 245.099 300.748C244.591 300.963 244.043 301.071 243.491 301.065C242.342 301.051 241.24 300.604 240.406 299.812C239.573 299.02 239.069 297.943 238.997 296.795C238.963 296.244 239.042 295.691 239.231 295.171C239.42 294.652 239.714 294.177 240.095 293.776C240.476 293.376 240.935 293.058 241.444 292.843C241.953 292.628 242.501 292.52 243.054 292.526C244.203 292.537 245.305 292.984 246.137 293.776C246.97 294.569 247.469 295.648 247.536 296.795Z" fill="#263238"/>
<path d="M260.656 296.795C260.692 297.346 260.614 297.899 260.426 298.418C260.239 298.938 259.946 299.413 259.566 299.814C259.187 300.215 258.728 300.533 258.219 300.748C257.711 300.963 257.163 301.071 256.611 301.065C255.462 301.051 254.36 300.604 253.526 299.812C252.693 299.02 252.19 297.943 252.117 296.795C252.083 296.245 252.162 295.693 252.35 295.174C252.539 294.656 252.832 294.182 253.211 293.781C253.59 293.381 254.048 293.062 254.556 292.847C255.063 292.631 255.61 292.522 256.162 292.526C257.311 292.539 258.413 292.987 259.247 293.779C260.08 294.571 260.584 295.648 260.656 296.795Z" fill="#263238"/>
<path d="M273.776 296.795C273.811 297.347 273.731 297.9 273.542 298.419C273.353 298.939 273.059 299.414 272.678 299.814C272.298 300.215 271.838 300.533 271.329 300.748C270.82 300.963 270.272 301.071 269.719 301.065C268.571 301.051 267.47 300.603 266.639 299.811C265.808 299.019 265.307 297.942 265.238 296.795C265.201 296.244 265.28 295.692 265.467 295.172C265.655 294.653 265.947 294.178 266.327 293.777C266.707 293.376 267.165 293.058 267.674 292.843C268.183 292.628 268.73 292.52 269.282 292.526C270.432 292.539 271.534 292.987 272.367 293.779C273.201 294.571 273.704 295.648 273.776 296.795Z" fill="#263238"/>
<path d="M415.701 151.824C416.013 152.299 416.176 152.548 416.375 152.885L416.937 153.809C417.299 154.433 417.624 155.058 417.936 155.669C418.56 156.918 419.184 158.166 419.683 159.414C420.73 161.894 421.63 164.432 422.38 167.017C423.891 172.122 424.887 177.367 425.351 182.671L425.438 183.657C425.449 183.857 425.449 184.057 425.438 184.257V184.918C425.459 185.786 425.409 186.655 425.289 187.515C425.049 189.109 424.63 190.671 424.04 192.171C422.944 194.85 421.491 197.37 419.721 199.661C416.42 203.889 412.502 207.596 408.099 210.659L404.653 206.627C407.788 203.086 410.565 199.243 412.942 195.155C414.012 193.3 414.851 191.321 415.439 189.262C415.677 188.39 415.816 187.494 415.851 186.591C415.889 186.205 415.889 185.816 415.851 185.43V185.168C415.864 185.052 415.864 184.934 415.851 184.818L415.701 183.944C414.898 179.292 413.764 174.703 412.306 170.213C411.582 167.978 410.695 165.818 409.809 163.709C409.372 162.648 408.873 161.611 408.373 160.613L407.599 159.14L407.212 158.453L406.888 157.904L415.701 151.824Z" fill="#803E3C"/>
<path d="M404.092 210.684L408.611 220.234L412.194 212.157C412.194 212.157 409.01 205.166 404.703 205.816L404.092 210.684Z" fill="#7F3E3B"/>
<path d="M411.844 220.708L415.439 214.816L412.194 212.157L408.611 220.234L411.844 220.708Z" fill="#7F3E3B"/>
<path d="M391.521 440.942C392.455 440.919 393.385 440.794 394.292 440.568C394.338 440.554 394.379 440.528 394.412 440.493C394.445 440.458 394.468 440.415 394.479 440.368C394.487 440.32 394.48 440.271 394.46 440.227C394.44 440.182 394.408 440.145 394.367 440.119C394.005 439.881 390.834 437.834 389.611 438.383C389.475 438.447 389.359 438.545 389.273 438.667C389.188 438.79 389.136 438.933 389.124 439.082C389.086 439.308 389.104 439.54 389.176 439.758C389.247 439.975 389.371 440.172 389.536 440.331C390.102 440.768 390.807 440.985 391.521 440.942ZM393.58 440.206C391.77 440.58 390.397 440.518 389.835 440.031C389.721 439.917 389.637 439.777 389.591 439.622C389.545 439.467 389.539 439.303 389.573 439.145C389.573 438.933 389.698 438.87 389.785 438.833C390.46 438.533 392.295 439.42 393.58 440.206Z" fill="#7F9AF3"/>
<path d="M394.23 440.568H394.355C394.392 440.544 394.423 440.51 394.445 440.471C394.467 440.432 394.479 440.388 394.48 440.343C394.48 440.218 394.48 437.21 393.331 436.199C393.19 436.072 393.023 435.977 392.842 435.921C392.661 435.865 392.47 435.849 392.282 435.874C392.086 435.876 391.895 435.945 391.743 436.07C391.591 436.195 391.486 436.368 391.446 436.561C391.209 437.747 393.106 439.994 394.105 440.568H394.23ZM392.445 436.336C392.546 436.333 392.646 436.35 392.741 436.387C392.835 436.423 392.921 436.478 392.994 436.548C393.653 437.519 393.993 438.671 393.968 439.844C392.969 439.045 391.783 437.347 391.933 436.636C391.933 436.523 392.02 436.374 392.332 436.336H392.445Z" fill="#7F9AF3"/>
<path d="M379.736 435.849C379.765 435.813 379.784 435.769 379.791 435.722C379.798 435.676 379.792 435.629 379.774 435.585C379.756 435.542 379.727 435.504 379.69 435.476C379.652 435.448 379.608 435.43 379.561 435.425C379.05 435.425 374.568 435.212 373.544 436.311V436.386C373.46 436.494 373.405 436.622 373.385 436.758C373.365 436.894 373.382 437.032 373.432 437.16C373.499 437.374 373.616 437.569 373.775 437.728C373.934 437.887 374.129 438.005 374.343 438.071C375.791 438.521 378.35 436.885 379.749 435.874L379.736 435.849ZM373.919 436.636C374.481 436.036 376.952 435.874 378.8 435.899C376.865 437.222 375.255 437.847 374.443 437.597C374.302 437.554 374.173 437.477 374.068 437.372C373.964 437.268 373.887 437.139 373.844 436.998C373.819 436.949 373.806 436.896 373.806 436.842C373.806 436.787 373.819 436.734 373.844 436.686L373.919 436.636Z" fill="#7F9AF3"/>
<path d="M379.736 435.849C379.755 435.81 379.765 435.768 379.765 435.724C379.765 435.681 379.755 435.639 379.736 435.6C379.674 435.5 378.276 433.103 376.628 432.604C376.391 432.534 376.143 432.514 375.898 432.544C375.654 432.574 375.418 432.654 375.205 432.778C374.606 433.128 374.568 433.54 374.643 433.802C374.968 434.963 378.151 435.987 379.524 435.974C379.567 435.973 379.61 435.962 379.647 435.94C379.684 435.918 379.715 435.887 379.736 435.849ZM375.255 433.353C375.325 433.283 375.405 433.225 375.492 433.178C375.646 433.08 375.82 433.016 376.001 432.993C376.182 432.969 376.366 432.985 376.541 433.04C377.627 433.328 378.638 434.726 379.1 435.412C377.614 435.25 375.355 434.339 375.167 433.64C375.152 433.587 375.151 433.53 375.167 433.477C375.182 433.424 375.213 433.376 375.255 433.34V433.353Z" fill="#7F9AF3"/>
<path d="M393.481 115.26C392.232 121.502 389.536 134.997 393.868 139.141C393.868 139.141 392.17 145.383 380.648 145.383C367.964 145.383 374.593 139.141 374.593 139.141C381.509 137.493 381.334 132.35 380.123 127.531L393.481 115.26Z" fill="#7F3E3B"/>
<path d="M372.358 100.629C372.429 100.641 372.5 100.641 372.571 100.629C372.63 100.6 372.683 100.56 372.726 100.51C372.77 100.46 372.803 100.402 372.824 100.339C372.845 100.277 372.853 100.21 372.848 100.144C372.843 100.079 372.825 100.014 372.795 99.9553C372.46 99.2432 371.958 98.6221 371.332 98.1442C370.707 97.6663 369.975 97.3456 369.2 97.2089C369.07 97.1981 368.941 97.2372 368.839 97.3184C368.737 97.3996 368.669 97.5168 368.651 97.6459C368.637 97.7765 368.675 97.9074 368.757 98.0102C368.838 98.113 368.957 98.1795 369.088 98.1951C369.7 98.3126 370.275 98.5744 370.766 98.9587C371.256 99.3429 371.648 99.8387 371.909 100.405C371.957 100.479 372.024 100.538 372.103 100.578C372.182 100.617 372.27 100.635 372.358 100.629Z" fill="#263238"/>
<path d="M368.576 106.11C367.593 107.932 366.367 109.612 364.931 111.103C365.319 111.459 365.781 111.726 366.283 111.885C366.786 112.045 367.317 112.093 367.839 112.027L368.576 106.11Z" fill="#630F0F"/>
<path d="M369.512 104.699C369.412 105.535 368.876 106.16 368.339 106.097C367.802 106.035 367.428 105.298 367.527 104.462C367.627 103.625 368.164 103.001 368.776 103.064C369.387 103.126 369.6 103.863 369.512 104.699Z" fill="#263238"/>
<path d="M368.938 103.138L367.016 102.365C367.016 102.365 367.827 104.012 368.938 103.138Z" fill="#263238"/>
<path d="M390.759 433.477L380.573 435.849L374.381 412.43L384.567 410.058L390.759 433.477Z" fill="#7F3E3B"/>
<path d="M406.389 440.318H395.94L396.751 416.113H407.213L406.389 440.318Z" fill="#7F3E3B"/>
<path d="M395.103 439.107H406.85C407.054 439.106 407.251 439.178 407.405 439.311C407.559 439.445 407.659 439.63 407.687 439.831L409.022 449.119C409.049 449.354 409.025 449.592 408.953 449.817C408.881 450.042 408.762 450.249 408.604 450.425C408.446 450.601 408.252 450.741 408.036 450.837C407.82 450.932 407.586 450.981 407.35 450.979C403.255 450.917 401.283 450.667 396.114 450.667C392.931 450.667 388.287 451.004 383.906 451.004C379.524 451.004 379.274 446.66 381.109 446.273C389.298 444.5 390.597 442.079 393.356 439.757C393.843 439.34 394.462 439.11 395.103 439.107Z" fill="#263238"/>
<path d="M379.674 434.289L390.347 429.383C390.529 429.296 390.735 429.279 390.928 429.334C391.121 429.389 391.288 429.513 391.396 429.682L396.502 437.572C396.621 437.775 396.696 438.001 396.723 438.235C396.749 438.469 396.727 438.706 396.656 438.93C396.586 439.155 396.469 439.362 396.313 439.539C396.157 439.716 395.967 439.858 395.753 439.956C392.008 441.604 390.11 442.216 385.416 444.375C382.533 445.699 376.678 448.745 372.708 450.617C368.738 452.49 366.691 448.607 368.189 447.484C374.893 442.49 376.815 438.908 378.351 435.649C378.61 435.049 379.081 434.565 379.674 434.289Z" fill="#263238"/>
<path opacity="0.2" d="M374.381 412.43L377.701 424.988L387.763 422.13L384.58 410.058L374.381 412.43Z" fill="black"/>
<path opacity="0.2" d="M407.213 416.113H396.751L396.339 428.596H406.801L407.213 416.113Z" fill="black"/>
<path d="M411.956 141.513C416.3 142.474 420.944 158.091 420.944 158.091L408.66 171.161C408.66 171.161 398.461 156.481 400.546 151.088C402.656 145.458 406.775 140.389 411.956 141.513Z" fill="#263238"/>
<path opacity="0.4" d="M405.015 151.462C402.818 149.452 401.333 150.051 400.321 151.649C399.323 156.293 405.24 166.018 407.624 169.701C408.723 165.306 409.984 156.044 405.015 151.462Z" fill="black"/>
<path d="M356.916 141.825C356.916 141.825 351.923 143.573 361.91 204.929H404.354C403.642 187.652 403.617 176.991 411.844 141.513C405.896 140.286 399.868 139.493 393.805 139.141C387.389 138.679 380.947 138.679 374.531 139.141C366.304 139.902 356.916 141.825 356.916 141.825Z" fill="#263238"/>
<path opacity="0.4" d="M356.529 165.369C356.804 168.352 357.166 171.71 357.64 175.505C361.123 172.372 363.969 163.459 362.921 158.266C360.433 160.285 358.276 162.682 356.529 165.369Z" fill="black"/>
<path d="M361.073 156.044C358.783 161.808 356.204 167.454 353.346 172.959C350.521 178.663 347.178 184.095 343.359 189.187L342.56 190.174L342.161 190.661C342.023 190.823 341.911 190.973 341.699 191.197C340.948 192.017 340.111 192.754 339.202 193.394C337.596 194.506 335.839 195.38 333.984 195.991C330.749 197.024 327.39 197.62 323.997 197.764C317.643 198.016 311.282 197.45 305.072 196.078L305.759 190.835C308.63 190.835 311.639 190.835 314.497 190.598C317.369 190.457 320.228 190.14 323.061 189.649C325.692 189.239 328.265 188.518 330.726 187.502C331.72 187.078 332.649 186.514 333.485 185.829C333.804 185.562 334.093 185.261 334.346 184.931C334.346 184.931 334.496 184.731 334.596 184.594L334.883 184.182L335.47 183.358C338.602 178.519 341.393 173.468 343.821 168.24C346.318 162.935 348.814 157.429 351.099 152.012L361.073 156.044Z" fill="#803E3C"/>
<path d="M356.917 141.825C351.711 143.073 345.319 157.354 345.319 157.354L356.105 173.208C356.105 173.208 370.474 155.12 368.763 149.602C367.016 143.847 363.271 140.277 356.917 141.825Z" fill="#263238"/>
<path d="M308.755 191.634L299.754 187.477L298.855 196.428C298.855 196.428 306.346 198.637 310.091 196.428L308.755 191.634Z" fill="#7F3E3B"/>
<path d="M294.374 186.578L293.513 193.394L298.856 196.428L299.754 187.477L294.374 186.578Z" fill="#7F3E3B"/>
<path d="M398 105.311C396.09 115.51 395.503 119.879 389.661 124.51C380.922 131.476 368.751 126.907 367.578 116.346C366.504 106.834 369.8 91.7536 380.373 88.8824C382.702 88.2398 385.157 88.2046 387.504 88.7802C389.85 89.3557 392.01 90.5228 393.778 92.1701C395.545 93.8175 396.862 95.8901 397.601 98.1905C398.34 100.491 398.477 102.942 398 105.311Z" fill="#7F3E3B"/>
<path d="M375.592 107.458C375.005 112.664 374.78 126.183 386.215 126.608C400.209 127.119 404.404 115.16 403.155 110.379C410.446 104.449 411.494 94.2503 403.305 86.4481C395.116 78.6459 377.09 83.0027 372.096 90.6051C365.767 100.03 375.592 107.458 375.592 107.458Z" fill="#263238"/>
<path d="M389.611 89.4817C388.936 83.9889 389.461 80.2064 394.604 80.2064C399.747 80.2064 406.763 82.0665 409.335 87.322C411.906 92.5776 412.118 100.804 404.94 99.9678C397.762 99.1314 390.422 96.048 389.611 89.4817Z" fill="#7F9AF3"/>
<path d="M397.575 88.1584C396.327 81.617 402.182 63.1914 416.4 61.943C422.992 61.3813 426.038 68.4719 422.642 69.6453C428.884 69.5704 432.879 77.822 427.061 79.0579C431.655 82.004 430.519 88.046 423.965 91.0171C419.084 93.2641 399.261 97.2214 397.575 88.1584Z" fill="#263238"/>
<path d="M412.768 95.1864C408.186 95.1864 403.405 94.5123 400.434 92.5274C399.603 92.0267 398.904 91.3352 398.394 90.5102C397.883 89.6853 397.577 88.7506 397.5 87.7837C397.497 87.7016 397.524 87.6212 397.577 87.5586C397.631 87.4961 397.706 87.4561 397.787 87.4467C397.829 87.4414 397.871 87.4449 397.911 87.4568C397.951 87.4687 397.988 87.4888 398.019 87.5158C398.051 87.5428 398.077 87.5762 398.095 87.6137C398.113 87.6512 398.123 87.6921 398.125 87.7338C398.2 88.6063 398.48 89.4488 398.942 90.1928C399.404 90.9368 400.035 91.5613 400.783 92.0156C406.438 95.7607 419.509 94.5123 423.578 93.264C427.099 92.1155 429.483 89.8809 429.957 87.3093C430.105 86.3657 429.989 85.3994 429.621 84.518C429.253 83.6365 428.648 82.8743 427.873 82.3159C427.843 82.2879 427.819 82.2541 427.803 82.2165C427.787 82.1789 427.778 82.1384 427.778 82.0975C427.778 82.0565 427.787 82.016 427.803 81.9784C427.819 81.9409 427.843 81.907 427.873 81.879C427.931 81.8218 428.009 81.7898 428.091 81.7898C428.173 81.7898 428.251 81.8218 428.31 81.879C429.181 82.5148 429.858 83.3804 430.266 84.379C430.674 85.3776 430.796 86.47 430.619 87.534C430.107 90.3428 427.573 92.7397 423.828 93.963C420.214 94.874 416.493 95.2856 412.768 95.1864Z" fill="#263238"/>
<path d="M372.408 106.11C371.246 107.74 370.767 109.761 371.073 111.74C371.485 114.361 374.031 114.536 375.879 112.863C377.726 111.19 379.337 108.169 377.976 105.997C377.674 105.528 377.256 105.144 376.763 104.882C376.271 104.619 375.719 104.488 375.161 104.499C374.603 104.51 374.057 104.664 373.575 104.946C373.093 105.228 372.692 105.629 372.408 106.11Z" fill="#7F3E3B"/>
<path d="M373.12 204.929C373.12 204.929 379.187 276.697 385.491 317.143C390.572 349.813 394.592 426.175 394.592 426.175H408.848C408.848 426.175 413.916 352.097 411.345 319.79C404.816 238.023 419.384 231.357 404.391 204.942L373.12 204.929Z" fill="#7F9AF3"/>
<path opacity="0.4" d="M391.071 232.056C385.421 237.986 380.862 244.865 377.602 252.379C379.262 268.508 381.234 286.409 383.331 302.088C391.937 279.809 394.604 255.676 391.071 232.056Z" fill="black"/>
<path d="M363.146 204.48C363.146 204.48 349.976 282.864 347.903 318.192C353.071 350.861 374.219 419.92 374.219 419.92L387.189 415.214C387.189 415.214 380.011 339.913 372.209 319.303C389.773 260.169 402.681 245.213 398.923 204.929C389.923 204.929 363.146 204.48 363.146 204.48Z" fill="#7F9AF3"/>
<path d="M372.484 423.366L390.01 418.609L389.012 411.619L370.249 416.699L372.484 423.366Z" fill="#263238"/>
<path d="M392.632 426.462H410.795L411.744 420.095L392.532 419.446L392.632 426.462Z" fill="#263238"/>
<path d="M405.015 202.432L406.925 206.24C407.075 206.54 406.726 206.839 406.239 206.839H361.697C361.323 206.839 360.998 206.652 360.973 206.402L360.586 202.657C360.586 202.395 360.898 202.17 361.31 202.17H404.316C404.445 202.153 404.577 202.167 404.699 202.213C404.821 202.259 404.93 202.334 405.015 202.432Z" fill="#7F9AF3"/>
<path opacity="0.5" d="M405.015 202.432L406.925 206.24C407.075 206.54 406.726 206.839 406.239 206.839H361.697C361.323 206.839 360.998 206.652 360.973 206.402L360.586 202.657C360.586 202.395 360.898 202.17 361.31 202.17H404.316C404.445 202.153 404.577 202.167 404.699 202.213C404.821 202.259 404.93 202.334 405.015 202.432Z" fill="black"/>
<path d="M399.235 207.226H400.384C400.621 207.226 400.796 207.101 400.783 206.964L400.234 201.97C400.234 201.821 400.022 201.708 399.797 201.708H398.636C398.411 201.708 398.237 201.821 398.249 201.97L398.786 206.964C398.811 207.126 399.011 207.226 399.235 207.226Z" fill="#7F9AF3"/>
<path d="M383.781 170.874C383.643 170.872 383.51 170.826 383.4 170.743C383.29 170.66 383.209 170.544 383.169 170.412C379.1 155.357 370.686 142.948 366.604 141.076C366.287 140.881 365.906 140.818 365.543 140.901C365.467 140.941 365.385 140.965 365.3 140.971C365.215 140.978 365.129 140.967 365.049 140.939C364.968 140.911 364.894 140.868 364.831 140.81C364.768 140.753 364.718 140.683 364.683 140.605C364.648 140.528 364.629 140.444 364.628 140.358C364.626 140.273 364.642 140.189 364.675 140.11C364.708 140.031 364.756 139.96 364.817 139.901C364.878 139.841 364.951 139.795 365.031 139.765C365.372 139.64 365.736 139.591 366.099 139.621C366.461 139.651 366.812 139.76 367.128 139.94C371.447 141.987 379.986 154.221 384.255 169.613C387.314 169.613 392.033 169.201 393.181 169.101C394.604 167.404 405.065 154.321 401.158 140.002C401.136 139.924 401.129 139.841 401.139 139.76C401.149 139.679 401.175 139.6 401.215 139.529C401.256 139.458 401.311 139.396 401.376 139.346C401.441 139.297 401.516 139.261 401.595 139.241C401.754 139.199 401.923 139.221 402.066 139.303C402.208 139.385 402.313 139.519 402.357 139.678C406.713 155.607 394.08 169.975 393.943 170.113C393.894 170.173 393.833 170.223 393.765 170.26C393.696 170.296 393.621 170.318 393.543 170.325C393.481 170.325 387.251 170.874 383.781 170.874Z" fill="#7F9AF3"/>
<path d="M404.466 179.687C397.663 166.942 394.879 166.043 393.668 161.948C394.585 159.659 395.895 157.546 397.538 155.706C396.714 155.469 394.941 155.12 393.793 154.908C393.918 154.346 394.055 153.797 394.18 153.26C392.93 153.12 391.666 153.179 390.435 153.434V152.186C388.849 151.841 387.22 151.736 385.604 151.874C385.745 152.465 385.882 153.064 386.015 153.672C384.767 153.909 382.87 154.296 381.958 154.558C383.729 156.564 385.03 158.939 385.766 161.511C382.096 167.816 367.839 208.337 391.034 211.445C414.228 214.554 411.257 192.445 404.466 179.687Z" fill="#7F9AF3"/>
<path opacity="0.4" d="M404.466 179.687C397.663 166.942 394.879 166.043 393.668 161.948C394.585 159.659 395.895 157.546 397.538 155.706C396.714 155.469 394.941 155.12 393.793 154.908C393.918 154.346 394.055 153.797 394.18 153.26C392.93 153.12 391.666 153.179 390.435 153.434V152.186C388.849 151.841 387.22 151.736 385.604 151.874C385.745 152.465 385.882 153.064 386.015 153.672C384.767 153.909 382.87 154.296 381.958 154.558C383.729 156.564 385.03 158.939 385.766 161.511C382.096 167.816 367.839 208.337 391.034 211.445C414.228 214.554 411.257 192.445 404.466 179.687Z" fill="white"/>
<path d="M384.817 160.301C384.672 160.943 384.61 161.602 384.63 162.26C384.63 162.722 385.878 163.034 387.264 163.172C388.649 163.309 394.467 163.534 394.279 162.885C394.092 162.236 394.567 161.349 394.591 160.8C394.616 160.251 392.282 160.226 390.322 160.301C388.362 160.375 385.204 159.601 384.817 160.301Z" fill="#7F9AF3"/>
<path d="M371.322 207.226H372.471C372.696 207.226 372.87 207.101 372.858 206.964L372.321 201.97C372.321 201.821 372.109 201.708 371.872 201.708H370.761C370.536 201.708 370.361 201.821 370.374 201.97L370.91 206.964C370.885 207.126 371.085 207.226 371.322 207.226Z" fill="#7F9AF3"/>
</svg>
