<svg width="127" height="25" viewBox="0 0 127 25" fill="none" xmlns="http://www.w3.org/2000/svg">
<path d="M0.0909092 1.22727H2.54545L10.9886 21.5H11.1932L19.6364 1.22727H22.0909V24.5H20.0909V5.71591H19.9091L12.0568 24.5H10.125L2.27273 5.71591H2.09091V24.5H0.0909092V1.22727ZM32.0348 24.8636C30.406 24.8636 28.9969 24.4848 27.8075 23.7273C26.6181 22.9621 25.6977 21.9053 25.0461 20.5568C24.4022 19.2008 24.0802 17.6402 24.0802 15.875C24.0802 14.1174 24.4022 12.5568 25.0461 11.1932C25.6977 9.82197 26.5954 8.75 27.7393 7.97727C28.8908 7.19697 30.2204 6.80682 31.728 6.80682C32.6749 6.80682 33.5878 6.98106 34.4666 7.32954C35.3454 7.67045 36.1333 8.19697 36.8302 8.90909C37.5348 9.61364 38.0916 10.5038 38.5007 11.5795C38.9098 12.6477 39.1143 13.9129 39.1143 15.375V16.375H25.478V14.5909H37.0461C37.0461 13.4697 36.8189 12.4621 36.3643 11.5682C35.9173 10.6667 35.2923 9.95455 34.4893 9.43182C33.6939 8.90909 32.7734 8.64773 31.728 8.64773C30.6219 8.64773 29.6484 8.94318 28.8075 9.53409C27.9666 10.125 27.3075 10.9053 26.8302 11.875C26.3605 12.8447 26.1219 13.9053 26.1143 15.0568V16.125C26.1143 17.5114 26.353 18.7235 26.8302 19.7614C27.3151 20.7917 28.0007 21.5909 28.887 22.1591C29.7734 22.7273 30.8227 23.0114 32.0348 23.0114C32.8605 23.0114 33.584 22.8826 34.2052 22.625C34.834 22.3674 35.3605 22.0227 35.7848 21.5909C36.2166 21.1515 36.5423 20.6705 36.762 20.1477L38.6825 20.7727C38.4173 21.5076 37.9817 22.1856 37.3757 22.8068C36.7772 23.428 36.0272 23.928 35.1257 24.3068C34.2317 24.678 33.2014 24.8636 32.0348 24.8636ZM46.9758 24.8636C45.544 24.8636 44.2902 24.4848 43.2144 23.7273C42.1387 22.9697 41.2978 21.9129 40.6917 20.5568C40.0932 19.2008 39.794 17.6212 39.794 15.8182C39.794 14.0227 40.0932 12.4508 40.6917 11.1023C41.2978 9.74621 42.1425 8.69318 43.2258 7.94318C44.3091 7.18561 45.5705 6.80682 47.0099 6.80682C48.0705 6.80682 48.9531 6.99621 49.6576 7.375C50.3622 7.74621 50.9266 8.20833 51.3508 8.76136C51.775 9.31439 52.1046 9.85227 52.3394 10.375H52.5212V1.22727H54.5553V24.5H52.5781V21.2614H52.3394C52.1046 21.7917 51.7712 22.3371 51.3394 22.8977C50.9076 23.4508 50.3356 23.9167 49.6235 24.2955C48.919 24.6742 48.0364 24.8636 46.9758 24.8636ZM47.2144 23.0114C48.3432 23.0114 49.3053 22.7045 50.1008 22.0909C50.8962 21.4697 51.5023 20.6174 51.919 19.5341C52.3432 18.4432 52.5553 17.1932 52.5553 15.7841C52.5553 14.3902 52.347 13.1591 51.9303 12.0909C51.5137 11.0152 50.9076 10.1742 50.1122 9.56818C49.3167 8.95455 48.3508 8.64773 47.2144 8.64773C46.0478 8.64773 45.0629 8.96591 44.2599 9.60227C43.4644 10.2311 42.8584 11.0833 42.4417 12.1591C42.0326 13.2348 41.8281 14.4432 41.8281 15.7841C41.8281 17.1402 42.0364 18.3636 42.4531 19.4545C42.8697 20.5455 43.4758 21.4129 44.2712 22.0568C45.0743 22.6932 46.0553 23.0114 47.2144 23.0114Z" fill="#222325"/>
<path d="M57.0617 24.5V1.22727H65.789C67.5769 1.22727 69.0769 1.56061 70.289 2.22727C71.5087 2.89394 72.4291 3.81061 73.0503 4.97727C73.6791 6.13636 73.9935 7.45454 73.9935 8.93182C73.9935 10.4242 73.6791 11.75 73.0503 12.9091C72.4216 14.0682 71.4935 14.9811 70.2663 15.6477C69.039 16.3068 67.5276 16.6364 65.7322 16.6364H59.9481V13.1705H65.164C66.2094 13.1705 67.0655 12.9886 67.7322 12.625C68.3988 12.2614 68.8913 11.7614 69.2094 11.125C69.5352 10.4886 69.6981 9.75758 69.6981 8.93182C69.6981 8.10606 69.5352 7.37879 69.2094 6.75C68.8913 6.12121 68.395 5.63258 67.7208 5.28409C67.0541 4.92803 66.1943 4.75 65.1413 4.75H61.2776V24.5H57.0617ZM75.1703 24.5H70.6703L78.8635 1.22727H84.0681L92.2726 24.5H87.7726L81.5567 6H81.3749L75.1703 24.5ZM75.3181 15.375H87.5908V18.7614H75.3181V15.375ZM104.731 7.625C104.625 6.63258 104.178 5.85985 103.39 5.30682C102.609 4.75379 101.594 4.47727 100.344 4.47727C99.4655 4.47727 98.7117 4.60985 98.083 4.875C97.4542 5.14015 96.9731 5.5 96.6398 5.95454C96.3064 6.40909 96.136 6.92803 96.1284 7.51136C96.1284 7.99621 96.2383 8.41667 96.458 8.77273C96.6852 9.12879 96.992 9.43182 97.3784 9.68182C97.7648 9.92424 98.1928 10.1288 98.6625 10.2955C99.1322 10.4621 99.6057 10.6023 100.083 10.7159L102.265 11.2614C103.144 11.4659 103.988 11.7424 104.799 12.0909C105.617 12.4394 106.348 12.8788 106.992 13.4091C107.644 13.9394 108.159 14.5795 108.537 15.3295C108.916 16.0795 109.106 16.9583 109.106 17.9659C109.106 19.3295 108.757 20.5303 108.06 21.5682C107.363 22.5985 106.356 23.4053 105.037 23.9886C103.727 24.5644 102.14 24.8523 100.276 24.8523C98.4655 24.8523 96.8936 24.572 95.5602 24.0114C94.2345 23.4508 93.1966 22.6326 92.4466 21.5568C91.7042 20.4811 91.3027 19.1705 91.242 17.625H95.3898C95.4504 18.4356 95.7004 19.1098 96.1398 19.6477C96.5792 20.1856 97.1511 20.5871 97.8557 20.8523C98.5678 21.1174 99.3633 21.25 100.242 21.25C101.159 21.25 101.962 21.1136 102.651 20.8409C103.348 20.5606 103.894 20.1742 104.287 19.6818C104.681 19.1818 104.882 18.5985 104.89 17.9318C104.882 17.3258 104.704 16.8258 104.356 16.4318C104.007 16.0303 103.519 15.697 102.89 15.4318C102.269 15.1591 101.541 14.9167 100.708 14.7045L98.0602 14.0227C96.1436 13.5303 94.6284 12.7841 93.5148 11.7841C92.4087 10.7765 91.8557 9.43939 91.8557 7.77273C91.8557 6.40151 92.2269 5.20076 92.9693 4.17045C93.7193 3.14015 94.7383 2.34091 96.0261 1.77273C97.314 1.19697 98.7723 0.90909 100.401 0.90909C102.053 0.90909 103.5 1.19697 104.742 1.77273C105.992 2.34091 106.973 3.13258 107.685 4.14773C108.397 5.1553 108.765 6.31439 108.787 7.625H104.731ZM122.632 7.625C122.526 6.63258 122.079 5.85985 121.291 5.30682C120.511 4.75379 119.496 4.47727 118.246 4.47727C117.367 4.47727 116.613 4.60985 115.984 4.875C115.355 5.14015 114.874 5.5 114.541 5.95454C114.208 6.40909 114.037 6.92803 114.03 7.51136C114.03 7.99621 114.14 8.41667 114.359 8.77273C114.586 9.12879 114.893 9.43182 115.28 9.68182C115.666 9.92424 116.094 10.1288 116.564 10.2955C117.033 10.4621 117.507 10.6023 117.984 10.7159L120.166 11.2614C121.045 11.4659 121.89 11.7424 122.7 12.0909C123.518 12.4394 124.249 12.8788 124.893 13.4091C125.545 13.9394 126.06 14.5795 126.439 15.3295C126.818 16.0795 127.007 16.9583 127.007 17.9659C127.007 19.3295 126.658 20.5303 125.961 21.5682C125.265 22.5985 124.257 23.4053 122.939 23.9886C121.628 24.5644 120.041 24.8523 118.177 24.8523C116.367 24.8523 114.795 24.572 113.461 24.0114C112.136 23.4508 111.098 22.6326 110.348 21.5568C109.605 20.4811 109.204 19.1705 109.143 17.625H113.291C113.352 18.4356 113.602 19.1098 114.041 19.6477C114.48 20.1856 115.052 20.5871 115.757 20.8523C116.469 21.1174 117.265 21.25 118.143 21.25C119.06 21.25 119.863 21.1136 120.552 20.8409C121.249 20.5606 121.795 20.1742 122.189 19.6818C122.583 19.1818 122.783 18.5985 122.791 17.9318C122.783 17.3258 122.605 16.8258 122.257 16.4318C121.908 16.0303 121.42 15.697 120.791 15.4318C120.17 15.1591 119.443 14.9167 118.609 14.7045L115.961 14.0227C114.045 13.5303 112.53 12.7841 111.416 11.7841C110.31 10.7765 109.757 9.43939 109.757 7.77273C109.757 6.40151 110.128 5.20076 110.871 4.17045C111.621 3.14015 112.64 2.34091 113.927 1.77273C115.215 1.19697 116.674 0.90909 118.302 0.90909C119.954 0.90909 121.401 1.19697 122.643 1.77273C123.893 2.34091 124.874 3.13258 125.586 4.14773C126.299 5.1553 126.666 6.31439 126.689 7.625H122.632Z" fill="#445BB8"/>
</svg>
